<?xml version="1.0" encoding="UTF-8"?>
<svg width="120px" height="120px" viewBox="0 0 120 120" version="1.1" xmlns="http://www.w3.org/2000/svg" xmlns:xlink="http://www.w3.org/1999/xlink">
    <title>空状态图</title>
    <defs>
        <linearGradient x1="52.3479998%" y1="74.6110022%" x2="52.3479998%" y2="-17.6350012%" id="linearGradient-1">
            <stop stop-color="#DEDEDE" stop-opacity="0" offset="0%"></stop>
            <stop stop-color="#A9A9A9" stop-opacity="0.300000012" offset="100%"></stop>
        </linearGradient>
        <linearGradient x1="44.7899997%" y1="100%" x2="44.7899997%" y2="0%" id="linearGradient-2">
            <stop stop-color="#FFFFFF" stop-opacity="0" offset="0%"></stop>
            <stop stop-color="#96A1C5" stop-opacity="0.372999996" offset="100%"></stop>
        </linearGradient>
        <linearGradient x1="50%" y1="100%" x2="50%" y2="-19.675003%" id="linearGradient-3">
            <stop stop-color="#FFFFFF" stop-opacity="0" offset="0%"></stop>
            <stop stop-color="#919191" stop-opacity="0.150000006" offset="100%"></stop>
        </linearGradient>
        <linearGradient x1="50%" y1="0%" x2="50%" y2="44.9500024%" id="linearGradient-4">
            <stop stop-color="#5389F5" offset="0%"></stop>
            <stop stop-color="#416FDC" offset="100%"></stop>
        </linearGradient>
        <linearGradient x1="63.3450031%" y1="100%" x2="63.3450031%" y2="-5.31600118%" id="linearGradient-5">
            <stop stop-color="#DCE9FF" offset="0%"></stop>
            <stop stop-color="#B6CFFF" offset="100%"></stop>
        </linearGradient>
        <linearGradient x1="50%" y1="0%" x2="50%" y2="100%" id="linearGradient-6">
            <stop stop-color="#7CA5F7" offset="0%"></stop>
            <stop stop-color="#C4D6FC" offset="100%"></stop>
        </linearGradient>
    </defs>
    <g id="05-V3.7" stroke="none" stroke-width="1" fill="none" fill-rule="evenodd">
        <g id="03-概览" transform="translate(-1020.000000, -789.000000)">
            <g id="项目总览" transform="translate(264.000000, 608.000000)">
                <g id="空状态图" transform="translate(756.000000, 181.000000)">
                    <rect id="矩形" fill-opacity="0" fill="#000000" x="2.27373675e-13" y="0" width="120" height="120"></rect>
                    <g id="编组" transform="translate(0.000000, 18.500000)">
                        <g opacity="0.800000012" transform="translate(5.478966, 0.000000)" fill="url(#linearGradient-1)" id="路径">
                            <path d="M22.0583984,6.45959016 C24.9962984,3.84408016 29.0582984,5.26755016 29.9219984,5.47142016 C32.9556984,6.18959016 31.9691984,1.46367016 34.5721984,0.503056162 C36.3067984,-0.137045838 37.7334984,0.645403162 38.8528984,2.85040016 C39.8439984,0.793260162 41.3543984,-0.148984838 43.3839984,0.0190770623 C46.4289984,0.273464162 47.4945984,10.4223002 51.6785984,8.20081016 C55.8633984,5.97836016 60.9938984,5.47051016 63.1853984,8.77295016 C63.6590984,9.48744016 63.8405984,8.37898016 67.0622984,4.59438016 C70.2839984,0.808872162 73.4964984,-0.858882838 80.0869984,1.34520016 C83.0834984,2.34622016 85.5477984,5.06000016 87.4823984,9.48561016 C87.4823984,15.8022002 92.1912984,19.5418002 101.606998,20.7016002 C115.732998,22.4420002 104.767998,37.4287002 87.4823984,41.8177002 C70.1955984,46.2075002 30.3964984,48.5769002 8.79917836,37.4867002 C-5.59909164,30.0947002 -2.32710164,22.1489002 18.6141984,13.6513002 C18.6141984,13.6513002 18.6151984,13.6513002 18.6151984,13.6513002 C19.8491984,9.80153016 20.9974984,7.40459016 22.0583984,6.45959016 Z"></path>
                        </g>
                        <path d="M59.5128938,69.469674 C73.8968938,69.469674 85.5575938,66.806094 85.5575938,63.520454 C85.5575938,60.234804 73.8968938,57.571274 59.5128938,57.571274 C45.1286938,57.571274 33.4680938,60.234804 33.4680938,63.520454 C33.4680938,66.806094 45.1286938,69.469674 59.5128938,69.469674 C59.5128938,69.469674 59.5128938,69.469674 59.5128938,69.469674 Z" id="路径" fill="url(#linearGradient-2)" fill-rule="nonzero"></path>
                        <g opacity="0.675000012" transform="translate(0.000000, 56.539009)" fill="url(#linearGradient-3)" id="路径">
                            <path d="M103.484,14.4047 C83.9010999,19.2518 17.0587999,13.7076 9.94431994,11.1756 C6.48155994,9.94225 3.36031994,7.62337 0.581535937,4.21806 C0.270527937,3.83729 0.0750411369,3.37746 0.0176630369,2.89169 C-0.0397150631,2.40593 0.0433581369,1.91405 0.257283937,1.4729 C0.471207937,1.03175 0.807252937,0.659347 1.22658994,0.39871 C1.64591994,0.138073 2.13142994,0 2.62698994,0 C2.62698994,0 119.431,0 119.431,0 C121.855,6.37163 116.539,11.1729 103.484,14.4047 C103.484,14.4047 103.484,14.4047 103.484,14.4047 Z"></path>
                        </g>
                    </g>
                    <g id="编组" transform="translate(39.114036, 55.008614)" fill-rule="nonzero">
                        <path d="M40.3844,11.0682 C40.3844,11.0682 31.4775,0.789796 31.4775,0.789796 C31.2669,0.544583 31.0052,0.347091 30.7102,0.210792 C30.4152,0.0744935 30.0938,0.00259453 29.768,7.10542736e-15 C29.768,7.10542736e-15 10.6163,7.10542736e-15 10.6163,7.10542736e-15 C9.9593,7.10542736e-15 9.33486,0.297551 8.90679,0.789796 C8.90679,0.789796 0,11.0682 0,11.0682 C0,11.0682 0,16.7106 0,16.7106 C0,16.7106 40.3844,16.7106 40.3844,16.7106 C40.3844,16.7106 40.3844,11.0682 40.3844,11.0682 C40.3844,11.0682 40.3844,11.0682 40.3844,11.0682 Z" id="路径" fill="url(#linearGradient-4)"></path>
                        <path d="M37.8605913,16.918144 C37.8605913,16.918144 30.0649913,7.96589301 30.0649913,7.96589301 C29.8764913,7.75451701 29.6441913,7.58564901 29.3836913,7.47076301 C29.1231913,7.35587581 28.8407913,7.29766176 28.5554913,7.30000401 C28.5554913,7.30000401 11.8288813,7.30000401 11.8288813,7.30000401 C11.2547013,7.30000401 10.6935513,7.53517801 10.3194413,7.96589301 C10.3194413,7.96589301 2.52379131,16.918144 2.52379131,16.918144 C2.52379131,16.918144 2.52379131,21.835104 2.52379131,21.835104 C2.52379131,21.835104 37.8605913,21.835104 37.8605913,21.835104 C37.8605913,21.835104 37.8605913,16.918144 37.8605913,16.918144 C37.8605913,16.918144 37.8605913,16.918144 37.8605913,16.918144 Z" id="路径" fill="url(#linearGradient-5)"></path>
                        <path d="M40.3844,23.176774 C40.3844,23.960274 40.027,24.664574 39.4631,25.136574 C39.4631,25.136574 39.3487,25.228474 39.3487,25.228474 C38.9015,25.562874 38.3555,25.743574 37.7945,25.7427766 C37.7945,25.7427766 2.5908,25.7427766 2.5908,25.7427766 C2.27253,25.7427766 1.96822,25.685774 1.68718,25.581074 C1.68718,25.581074 1.5476,25.525974 1.5476,25.525974 C1.08706,25.323874 0.69579,24.994174 0.421129,24.577174 C0.146468,24.160074 0,23.673374 0,23.175874 C0,23.175874 0,11.129674 0,11.129674 C0,11.129674 9.7983,11.129674 9.7983,11.129674 C10.8806,11.129674 11.7526,12.008552 11.7526,13.074774 C11.7526,13.074774 11.7526,13.088554 11.7526,13.088554 C11.7526,14.155694 12.6348,15.016204 13.7171,15.016204 C13.7171,15.016204 26.6673,15.016204 26.6673,15.016204 C27.1875,15.015714 27.6864,14.811814 28.0546,14.449144 C28.4227,14.086474 28.6304,13.594584 28.6318,13.081204 C28.6318,12.010388 29.5047,11.129674 30.5861,11.129674 C30.5861,11.129674 40.3854,11.129674 40.3854,11.129674 C40.3854,11.129674 40.3844,23.176774 40.3844,23.176774 C40.3844,23.176774 40.3844,23.176774 40.3844,23.176774 Z" id="路径" fill="url(#linearGradient-6)"></path>
                    </g>
                </g>
            </g>
        </g>
    </g>
</svg>