<?xml version="1.0" encoding="UTF-8"?>
<svg width="80px" height="80px" viewBox="0 0 80 80" version="1.1" xmlns="http://www.w3.org/2000/svg" xmlns:xlink="http://www.w3.org/1999/xlink">
    <title>概览-我的组件</title>
    <defs>
        <linearGradient x1="50%" y1="0%" x2="50%" y2="100%" id="linearGradient-1">
            <stop stop-color="#FFFFFF" stop-opacity="0" offset="0%"></stop>
            <stop stop-color="#FFFFFF" stop-opacity="0.1" offset="100%"></stop>
        </linearGradient>
        <path d="M36.3674046,1.0548132 L66.3730414,18.4264977 C67.2420628,18.9296153 67.5386863,20.0419537 67.0355687,20.910975 C66.8763987,21.1859051 66.6479715,21.4143323 66.3730414,21.5735023 L36.3674046,38.9451868 C35.2403961,39.5976654 33.850513,39.5976654 32.7235045,38.9451868 L2.71786767,21.5735023 C1.84884633,21.0703847 1.55222275,19.9580463 2.05534037,19.089025 C2.21451039,18.8140949 2.44293764,18.5856677 2.71786767,18.4264977 L32.7235045,1.0548132 C33.850513,0.402334585 35.2403961,0.402334585 36.3674046,1.0548132 Z" id="path-2"></path>
        <filter x="-13.2%" y="-25.9%" width="126.3%" height="151.7%" filterUnits="objectBoundingBox" id="filter-4">
            <feGaussianBlur stdDeviation="3.63636364" in="SourceGraphic"></feGaussianBlur>
        </filter>
        <filter x="-50.0%" y="-120.0%" width="200.0%" height="340.0%" filterUnits="objectBoundingBox" id="filter-5">
            <feGaussianBlur stdDeviation="5.45454545" in="SourceGraphic"></feGaussianBlur>
        </filter>
        <linearGradient x1="50%" y1="31.9747627%" x2="50%" y2="100%" id="linearGradient-6">
            <stop stop-color="#FFFFFF" stop-opacity="0" offset="0%"></stop>
            <stop stop-color="#FFFFFF" stop-opacity="0.2" offset="100%"></stop>
        </linearGradient>
        <path d="M36.3674046,1.0548132 L66.3730414,18.4264977 C67.2420628,18.9296153 67.5386863,20.0419537 67.0355687,20.910975 C66.8763987,21.1859051 66.6479715,21.4143323 66.3730414,21.5735023 L36.3674046,38.9451868 C35.2403961,39.5976654 33.850513,39.5976654 32.7235045,38.9451868 L2.71786767,21.5735023 C1.84884633,21.0703847 1.55222275,19.9580463 2.05534037,19.089025 C2.21451039,18.8140949 2.44293764,18.5856677 2.71786767,18.4264977 L32.7235045,1.0548132 C33.850513,0.402334585 35.2403961,0.402334585 36.3674046,1.0548132 Z" id="path-7"></path>
        <filter x="-13.2%" y="-25.9%" width="126.3%" height="151.7%" filterUnits="objectBoundingBox" id="filter-9">
            <feGaussianBlur stdDeviation="3.63636364" in="SourceGraphic"></feGaussianBlur>
        </filter>
        <filter x="-15.0%" y="-13.6%" width="130.0%" height="127.3%" filterUnits="objectBoundingBox" id="filter-10">
            <feGaussianBlur stdDeviation="0.909090909" in="SourceGraphic"></feGaussianBlur>
        </filter>
        <radialGradient cx="39.65088%" cy="42.7840324%" fx="39.65088%" fy="42.7840324%" r="63.6470213%" id="radialGradient-11">
            <stop stop-color="#FFFFFF" offset="0%"></stop>
            <stop stop-color="#D6D9FF" offset="100%"></stop>
        </radialGradient>
        <linearGradient x1="50%" y1="0%" x2="50%" y2="100%" id="linearGradient-12">
            <stop stop-color="#FFFFFF" stop-opacity="0" offset="0%"></stop>
            <stop stop-color="#FFFFFF" stop-opacity="0.15" offset="100%"></stop>
        </linearGradient>
        <path d="M36.3674046,1.0548132 L66.3730414,18.4264977 C67.2420628,18.9296153 67.5386863,20.0419537 67.0355687,20.910975 C66.8763987,21.1859051 66.6479715,21.4143323 66.3730414,21.5735023 L36.3674046,38.9451868 C35.2403961,39.5976654 33.850513,39.5976654 32.7235045,38.9451868 L2.71786767,21.5735023 C1.84884633,21.0703847 1.55222275,19.9580463 2.05534037,19.089025 C2.21451039,18.8140949 2.44293764,18.5856677 2.71786767,18.4264977 L32.7235045,1.0548132 C33.850513,0.402334585 35.2403961,0.402334585 36.3674046,1.0548132 Z" id="path-13"></path>
        <filter x="-50.0%" y="-120.0%" width="200.0%" height="340.0%" filterUnits="objectBoundingBox" id="filter-15">
            <feGaussianBlur stdDeviation="5.45454545" in="SourceGraphic"></feGaussianBlur>
        </filter>
    </defs>
    <g id="05-V3.7" stroke="none" stroke-width="1" fill="none" fill-rule="evenodd">
        <g id="03-概览" transform="translate(-1745.000000, -184.000000)">
            <g id="资源中心" transform="translate(264.000000, 88.000000)">
                <g id="我的组件" transform="translate(1089.000000, 80.000000)">
                    <g id="概览-我的组件" transform="translate(392.000000, 16.000000)">
                        <rect id="矩形" fill-opacity="0" fill="#000000" x="0" y="0" width="80" height="80"></rect>
                        <path d="M40,2.83527469 C40.5493401,2.83527469 41.0986801,2.97736895 41.5909091,3.26155749 L41.5909091,3.26155749 L71.02097,20.2530111 C72.0054279,20.8213881 72.6118791,21.8717923 72.6118791,23.0085464 L72.6118791,23.0085464 L72.6118791,56.9914536 C72.6118791,57.5598306 72.4602663,58.1066202 72.1855962,58.5823627 C71.9109262,59.0581051 71.5131989,59.4628004 71.02097,59.7469889 L71.02097,59.7469889 L41.5909091,76.7384425 C40.6064511,77.3068196 39.3935489,77.3068196 38.4090909,76.7384425 L38.4090909,76.7384425 L8.97903004,59.7469889 C7.99457207,59.1786119 7.38812095,58.1282077 7.38812095,56.9914536 L7.38812095,56.9914536 L7.38812095,23.0085464 C7.38812095,22.4401694 7.53973373,21.8933798 7.81440375,21.4176373 C8.08907378,20.9418949 8.48680105,20.5371996 8.97903004,20.2530111 L8.97903004,20.2530111 L38.4090909,3.26155749 C38.9013199,2.97736895 39.4506599,2.83527469 40,2.83527469 Z" id="多边形" stroke-opacity="0.102222363" stroke="#FFFFFF" stroke-width="0.909090909" fill-opacity="0.081372" fill="#FFFFFF"></path>
                        <g id="多边形备份-4" transform="translate(5.454545, 38.181818)">
                            <mask id="mask-3" fill="white">
                                <use xlink:href="#path-2"></use>
                            </mask>
                            <path stroke="url(#linearGradient-1)" stroke-width="0.909090909" d="M34.5454545,1.01999969 C35.0960246,1.01999969 35.6465946,1.16272939 36.1396609,1.44818879 L36.1396609,1.44818879 L66.1452977,18.8198732 C66.4711807,19.0085424 66.6897391,19.3114404 66.7796595,19.6486418 C66.8695799,19.9858433 66.8308622,20.3573483 66.6421931,20.6832313 C66.5228156,20.8894288 66.3514952,21.0607492 66.1452977,21.1801268 L66.1452977,21.1801268 L36.1396609,38.5518112 C35.6465946,38.8372706 35.0960246,38.9800003 34.5454545,38.9800003 C33.9948845,38.9800003 33.4443145,38.8372706 32.9512482,38.5518112 L32.9512482,38.5518112 L2.94561143,21.1801268 C2.61972843,20.9914576 2.40117001,20.6885596 2.31124961,20.3513582 C2.22132922,20.0141567 2.26004685,19.6426517 2.44871596,19.3167687 C2.56809347,19.1105712 2.73941391,18.9392508 2.94561143,18.8198732 L2.94561143,18.8198732 L32.9512482,1.44818879 C33.4443145,1.16272939 33.9948845,1.01999969 34.5454545,1.01999969 Z"></path>
                            <path d="M36.3674046,-14.3997323 L66.3730414,2.97195221 C67.2420628,3.47506983 67.5386863,4.58740824 67.0355687,5.45642958 C66.8763987,5.73135962 66.6479715,5.95978686 66.3730414,6.11895688 L36.3674046,23.4906413 C35.2403961,24.14312 33.850513,24.14312 32.7235045,23.4906413 L2.71786767,6.11895688 C1.84884633,5.61583926 1.55222275,4.50350085 2.05534037,3.63447951 C2.21451039,3.35954947 2.44293764,3.13112223 2.71786767,2.97195221 L32.7235045,-14.3997323 C33.850513,-15.0522109 35.2403961,-15.0522109 36.3674046,-14.3997323 Z" id="多边形备份-2" fill="#3647FF" opacity="0.200000003" filter="url(#filter-4)" mask="url(#mask-3)"></path>
                            <path d="M36.3674046,1.0548132 L53.3870866,10.9084542 L36.3674046,20.7633686 C35.2403961,21.4158472 33.850513,21.4158472 32.7235045,20.7633686 L15.7030866,10.9084542 L32.7235045,1.0548132 C33.850513,0.402334585 35.2403961,0.402334585 36.3674046,1.0548132 Z" id="形状结合" fill="#A9B1FF" mask="url(#mask-3)"></path>
                            <ellipse id="椭圆形" fill="#FFFFFF" opacity="0.271263" filter="url(#filter-5)" mask="url(#mask-3)" cx="34.5454545" cy="39.5454545" rx="16.3636364" ry="6.81818182"></ellipse>
                        </g>
                        <g id="编组" transform="translate(5.454545, 20.000000)">
                            <mask id="mask-8" fill="white">
                                <use xlink:href="#path-7"></use>
                            </mask>
                            <path stroke="url(#linearGradient-6)" stroke-width="0.909090909" d="M34.5454545,1.01999969 C35.0960246,1.01999969 35.6465946,1.16272939 36.1396609,1.44818879 L36.1396609,1.44818879 L66.1452977,18.8198732 C66.4711807,19.0085424 66.6897391,19.3114404 66.7796595,19.6486418 C66.8695799,19.9858433 66.8308622,20.3573483 66.6421931,20.6832313 C66.5228156,20.8894288 66.3514952,21.0607492 66.1452977,21.1801268 L66.1452977,21.1801268 L36.1396609,38.5518112 C35.6465946,38.8372706 35.0960246,38.9800003 34.5454545,38.9800003 C33.9948845,38.9800003 33.4443145,38.8372706 32.9512482,38.5518112 L32.9512482,38.5518112 L2.94561143,21.1801268 C2.61972843,20.9914576 2.40117001,20.6885596 2.31124961,20.3513582 C2.22132922,20.0141567 2.26004685,19.6426517 2.44871596,19.3167687 C2.56809347,19.1105712 2.73941391,18.9392508 2.94561143,18.8198732 L2.94561143,18.8198732 L32.9512482,1.44818879 C33.4443145,1.16272939 33.9948845,1.01999969 34.5454545,1.01999969 Z"></path>
                            <path d="M36.3674046,-14.3997323 L66.3730414,2.97195221 C67.2420628,3.47506983 67.5386863,4.58740824 67.0355687,5.45642958 C66.8763987,5.73135962 66.6479715,5.95978686 66.3730414,6.11895688 L36.3674046,23.4906413 C35.2403961,24.14312 33.850513,24.14312 32.7235045,23.4906413 L2.71786767,6.11895688 C1.84884633,5.61583926 1.55222275,4.50350085 2.05534037,3.63447951 C2.21451039,3.35954947 2.44293764,3.13112223 2.71786767,2.97195221 L32.7235045,-14.3997323 C33.850513,-15.0522109 35.2403961,-15.0522109 36.3674046,-14.3997323 Z" id="多边形备份-2" fill="#3647FF" opacity="0.200000003" filter="url(#filter-9)" mask="url(#mask-8)"></path>
                            <path d="M36.3674046,1.0548132 L53.3870866,10.9084542 L36.3674046,20.7633686 C35.2403961,21.4158472 33.850513,21.4158472 32.7235045,20.7633686 L15.7030866,10.9084542 L32.7235045,1.0548132 C33.850513,0.402334585 35.2403961,0.402334585 36.3674046,1.0548132 Z" id="形状结合" fill="#A9B1FF" mask="url(#mask-8)"></path>
                            <ellipse id="椭圆形备份-3" fill="#3647FF" opacity="0.295822144" filter="url(#filter-10)" mask="url(#mask-8)" cx="34.5454545" cy="19.5454545" rx="9.09090909" ry="10"></ellipse>
                            <circle id="椭圆形" fill="url(#radialGradient-11)" mask="url(#mask-8)" cx="34.5454545" cy="18.1818182" r="10"></circle>
                        </g>
                        <g id="多边形备份-5" transform="translate(5.454545, 1.818182)">
                            <mask id="mask-14" fill="white">
                                <use xlink:href="#path-13"></use>
                            </mask>
                            <path stroke="url(#linearGradient-12)" stroke-width="0.909090909" d="M34.5454545,1.01999969 C35.0960246,1.01999969 35.6465946,1.16272939 36.1396609,1.44818879 L36.1396609,1.44818879 L66.1452977,18.8198732 C66.4711807,19.0085424 66.6897391,19.3114404 66.7796595,19.6486418 C66.8695799,19.9858433 66.8308622,20.3573483 66.6421931,20.6832313 C66.5228156,20.8894288 66.3514952,21.0607492 66.1452977,21.1801268 L66.1452977,21.1801268 L36.1396609,38.5518112 C35.6465946,38.8372706 35.0960246,38.9800003 34.5454545,38.9800003 C33.9948845,38.9800003 33.4443145,38.8372706 32.9512482,38.5518112 L32.9512482,38.5518112 L2.94561143,21.1801268 C2.61972843,20.9914576 2.40117001,20.6885596 2.31124961,20.3513582 C2.22132922,20.0141567 2.26004685,19.6426517 2.44871596,19.3167687 C2.56809347,19.1105712 2.73941391,18.9392508 2.94561143,18.8198732 L2.94561143,18.8198732 L32.9512482,1.44818879 C33.4443145,1.16272939 33.9948845,1.01999969 34.5454545,1.01999969 Z"></path>
                            <ellipse id="椭圆形" fill="#FFFFFF" opacity="0.124013506" filter="url(#filter-15)" mask="url(#mask-14)" cx="34.5454545" cy="-0.454545455" rx="16.3636364" ry="6.81818182"></ellipse>
                        </g>
                    </g>
                </g>
            </g>
        </g>
    </g>
</svg>