<?xml version="1.0" encoding="UTF-8"?>
<svg width="80px" height="80px" viewBox="0 0 80 80" version="1.1" xmlns="http://www.w3.org/2000/svg" xmlns:xlink="http://www.w3.org/1999/xlink">
    <title>概览-机器学习</title>
    <defs>
        <linearGradient x1="50%" y1="100%" x2="50%" y2="0%" id="linearGradient-1">
            <stop stop-color="#FFFFFF" stop-opacity="0.0969750464" offset="0.0826322115%"></stop>
            <stop stop-color="#FFFFFF" stop-opacity="0" offset="100%"></stop>
        </linearGradient>
        <linearGradient x1="50%" y1="0%" x2="50%" y2="100%" id="linearGradient-2">
            <stop stop-color="#FFFFFF" stop-opacity="0.0909978693" offset="0%"></stop>
            <stop stop-color="#FFFFFF" stop-opacity="0.15" offset="100%"></stop>
        </linearGradient>
        <filter x="-25.0%" y="-150.0%" width="150.0%" height="400.0%" filterUnits="objectBoundingBox" id="filter-3">
            <feGaussianBlur stdDeviation="1.81818182" in="SourceGraphic"></feGaussianBlur>
        </filter>
        <linearGradient x1="50%" y1="-2.48949813e-15%" x2="50%" y2="100%" id="linearGradient-4">
            <stop stop-color="#D3DCFF" offset="0%"></stop>
            <stop stop-color="#FFFFFF" offset="100%"></stop>
        </linearGradient>
        <linearGradient x1="100%" y1="50%" x2="0%" y2="50%" id="linearGradient-5">
            <stop stop-color="#FFFFFF" stop-opacity="0.0644940997" offset="0%"></stop>
            <stop stop-color="#FFFFFF" stop-opacity="0.29848667" offset="30.0032609%"></stop>
            <stop stop-color="#FFFFFF" stop-opacity="0.0629643794" offset="100%"></stop>
        </linearGradient>
        <linearGradient x1="50%" y1="100%" x2="50%" y2="0%" id="linearGradient-6">
            <stop stop-color="#FFFFFF" stop-opacity="0.247114702" offset="0%"></stop>
            <stop stop-color="#FFFFFF" stop-opacity="0.05" offset="100%"></stop>
        </linearGradient>
        <linearGradient x1="50%" y1="0%" x2="50%" y2="100%" id="linearGradient-7">
            <stop stop-color="#FFFFFF" stop-opacity="0.0956066638" offset="0%"></stop>
            <stop stop-color="#FFFFFF" stop-opacity="0.15" offset="100%"></stop>
        </linearGradient>
    </defs>
    <g id="05-V3.7" stroke="none" stroke-width="1" fill="none" fill-rule="evenodd">
        <g id="03-概览" transform="translate(-1213.000000, -184.000000)">
            <g id="资源中心" transform="translate(264.000000, 88.000000)">
                <g id="机器学习" transform="translate(557.000000, 80.000000)">
                    <g id="概览-机器学习" transform="translate(392.000000, 16.000000)">
                        <rect id="矩形" fill-opacity="0" fill="#000000" x="0" y="0" width="80" height="80"></rect>
                        <ellipse id="椭圆形备份-4" stroke="url(#linearGradient-2)" stroke-width="0.909090909" fill="url(#linearGradient-1)" cx="40" cy="60" rx="32.2727273" ry="17.7272727"></ellipse>
                        <rect id="矩形" fill="#002EC3" opacity="0.498845418" filter="url(#filter-3)" x="28.1818182" y="54.5454545" width="21.8181818" height="3.63636364" rx="1.81818182"></rect>
                        <path d="M39.5454545,27.2727273 C41.0795455,27.2727273 42.3295455,28.5375494 42.3295455,30.0898311 C42.3295455,31.2396694 41.6477272,32.217032 40.6818182,32.6769673 L40.6818182,32.6769673 L40.6813636,36.7007273 L48.4090909,36.7014014 C50.0527597,36.7014014 51.3794353,38.0378684 51.4721013,39.6282642 L51.4772727,39.8059648 L51.4772727,53.2590729 C51.4772727,54.9838304 50.1136364,56.3636364 48.4090909,56.3636364 L48.4090909,56.3636364 L30.6818182,56.3636364 C28.9772727,56.3636364 27.6136364,54.9838304 27.6136364,53.2590729 L27.6136364,53.2590729 L27.6136364,39.8059648 C27.6136364,38.0812073 28.9772727,36.7014014 30.6818182,36.7014014 L30.6818182,36.7014014 L38.4083636,36.7007273 L38.4090909,32.6769673 C37.5,32.244087 36.8425605,31.3528628 36.7683604,30.2908831 L36.7613636,30.0898311 C36.7613636,28.5375494 38.0113636,27.2727273 39.5454545,27.2727273 Z M42.5,48.0273087 L36.5909091,48.0273087 C35.7954545,48.0273087 35.1136364,48.7172116 35.1136364,49.5220984 C35.1136364,50.3269853 35.7954545,51.0168883 36.5909091,51.0168883 L36.5909091,51.0168883 L42.5,51.0168883 C43.2954545,51.0168883 43.9772727,50.3844772 43.9772727,49.5220984 C43.9772727,48.7172116 43.2954545,48.0273087 42.5,48.0273087 L42.5,48.0273087 Z M24.7727273,42.393101 C25.3977273,42.393101 25.9090909,42.9105282 25.9090909,43.5429393 L25.9090909,49.5220984 C25.8522727,50.1545095 25.3977273,50.6719368 24.7727273,50.6719368 C24.1477273,50.6719368 23.6363636,50.1545095 23.6363636,49.5220984 L23.6363636,43.5429393 C23.6363636,42.9105282 24.1477273,42.393101 24.7727273,42.393101 Z M54.3181818,42.393101 C54.9431818,42.393101 55.4545455,42.9105282 55.4545455,43.5429393 L55.4545455,49.5220984 C55.4545455,50.1545095 54.9431818,50.6719368 54.3181818,50.6719368 C53.6931818,50.6719368 53.1818182,50.1545095 53.1818182,49.5220984 L53.1818182,43.5429393 C53.1818182,42.9105282 53.6931818,42.393101 54.3181818,42.393101 Z M34.375,42.0481495 C33.5795455,42.0481495 32.8977273,42.7380525 32.8977273,43.5429393 C32.8977273,44.405318 33.5795454,45.0377291 34.375,45.0377291 C35.1704546,45.0377291 35.8522727,44.3478261 35.8522727,43.5429393 C35.8522727,42.7380525 35.1704545,42.0481495 34.375,42.0481495 Z M44.7159091,42.0481495 C43.9204545,42.0481495 43.2386363,42.7380525 43.2386363,43.5429393 C43.2386363,44.3478261 43.9204546,45.0377291 44.7159091,45.0377291 C45.5681818,45.0377291 46.1931818,44.3478261 46.1931818,43.5429393 C46.1931818,42.7380525 45.5113636,42.0481495 44.7159091,42.0481495 Z M39.5454545,29.514912 C39.2613636,29.514912 38.9772727,29.7448796 38.9772727,30.0898311 C38.9772727,30.4347826 39.2045455,30.6647503 39.5454545,30.6647503 C39.8863636,30.6647503 40.1136364,30.3772907 40.1136364,30.0898311 C40.1136364,29.7448796 39.8295454,29.514912 39.5454545,29.514912 Z" id="形状结合" fill="url(#linearGradient-4)" fill-rule="nonzero"></path>
                        <path d="M7.27272727,20 C7.27272727,30.0415409 21.9252264,38.1818182 40,38.1818182 C57.8940259,38.1818182 72.4338805,30.2035324 72.7228882,20.3006696 L72.7272727,20 L72.7272727,60 C72.7272727,70.0415409 58.0747736,78.1818182 40,78.1818182 C21.9252264,78.1818182 7.27272727,70.0415409 7.27272727,60 L7.27272727,60 L7.27272727,20 Z" id="形状结合" fill="url(#linearGradient-5)"></path>
                        <rect id="矩形" fill-opacity="0.081" fill="#FFFFFF" x="7.27272727" y="20" width="1" height="40"></rect>
                        <rect id="矩形备份-6" fill-opacity="0.081" fill="#FFFFFF" x="71.8181818" y="20" width="1" height="40"></rect>
                        <ellipse id="椭圆形" stroke="url(#linearGradient-7)" stroke-width="0.909090909" fill="url(#linearGradient-6)" cx="40" cy="20" rx="32.2727273" ry="17.7272727"></ellipse>
                    </g>
                </g>
            </g>
        </g>
    </g>
</svg>