<?xml version="1.0" encoding="UTF-8"?>
<svg width="80px" height="80px" viewBox="0 0 80 80" version="1.1" xmlns="http://www.w3.org/2000/svg" xmlns:xlink="http://www.w3.org/1999/xlink">
    <title>概览-应用开发</title>
    <defs>
        <linearGradient x1="50%" y1="0%" x2="50%" y2="100%" id="linearGradient-1">
            <stop stop-color="#FFFFFF" stop-opacity="0.100766909" offset="0%"></stop>
            <stop stop-color="#FFFFFF" stop-opacity="0.0453862544" offset="100%"></stop>
        </linearGradient>
        <path d="M36.3674046,1.0548132 L66.3730414,18.4264977 C67.2420628,18.9296153 67.5386863,20.0419537 67.0355687,20.910975 C66.8763987,21.1859051 66.6479715,21.4143323 66.3730414,21.5735023 L36.3674046,38.9451868 C35.2403961,39.5976654 33.850513,39.5976654 32.7235045,38.9451868 L2.71786767,21.5735023 C1.84884633,21.0703847 1.55222275,19.9580463 2.05534037,19.089025 C2.21451039,18.8140949 2.44293764,18.5856677 2.71786767,18.4264977 L32.7235045,1.0548132 C33.850513,0.402334585 35.2403961,0.402334585 36.3674046,1.0548132 Z" id="path-2"></path>
        <filter x="-50.0%" y="-120.0%" width="200.0%" height="340.0%" filterUnits="objectBoundingBox" id="filter-4">
            <feGaussianBlur stdDeviation="5.45454545" in="SourceGraphic"></feGaussianBlur>
        </filter>
        <filter x="-34.6%" y="-34.6%" width="169.3%" height="169.2%" filterUnits="objectBoundingBox" id="filter-5">
            <feGaussianBlur stdDeviation="2.72727273" in="SourceGraphic"></feGaussianBlur>
        </filter>
        <linearGradient x1="54.4982288%" y1="38.9066038%" x2="32.6626426%" y2="66.619849%" id="linearGradient-6">
            <stop stop-color="#FFFFFF" stop-opacity="0" offset="0%"></stop>
            <stop stop-color="#FFFFFF" stop-opacity="0.65" offset="100%"></stop>
        </linearGradient>
        <linearGradient x1="52.498671%" y1="45.8850138%" x2="32.6626426%" y2="66.1778305%" id="linearGradient-7">
            <stop stop-color="#FFFFFF" stop-opacity="0" offset="0%"></stop>
            <stop stop-color="#FFFFFF" stop-opacity="0.65" offset="100%"></stop>
        </linearGradient>
        <linearGradient x1="72.9131244%" y1="57.9550054%" x2="27.9739442%" y2="39.9604845%" id="linearGradient-8">
            <stop stop-color="#FFFFFF" stop-opacity="0.201523574" offset="0%"></stop>
            <stop stop-color="#FFFFFF" stop-opacity="0.1" offset="100%"></stop>
        </linearGradient>
        <linearGradient x1="50%" y1="100%" x2="50%" y2="3.061617e-15%" id="linearGradient-9">
            <stop stop-color="#FFFFFF" stop-opacity="0.498244919" offset="0%"></stop>
            <stop stop-color="#FFFFFF" stop-opacity="0.0987856138" offset="51.056367%"></stop>
            <stop stop-color="#FFFFFF" stop-opacity="0.151200728" offset="100%"></stop>
        </linearGradient>
    </defs>
    <g id="05-V3.7" stroke="none" stroke-width="1" fill="none" fill-rule="evenodd">
        <g id="03-概览" transform="translate(-681.000000, -184.000000)">
            <g id="资源中心" transform="translate(264.000000, 88.000000)">
                <g id="应用开发" transform="translate(24.000000, 80.000000)">
                    <g id="概览-应用开发" transform="translate(393.000000, 16.000000)">
                        <rect id="矩形" fill-opacity="0" fill="#000000" x="0" y="0" width="80" height="80"></rect>
                        <g id="编组-3" opacity="0.400000006" transform="translate(5.454545, 38.181818)">
                            <mask id="mask-3" fill="white">
                                <use xlink:href="#path-2"></use>
                            </mask>
                            <path stroke="url(#linearGradient-1)" stroke-width="0.909090909" d="M34.5454545,1.01999969 C35.0960246,1.01999969 35.6465946,1.16272939 36.1396609,1.44818879 L36.1396609,1.44818879 L66.1452977,18.8198732 C66.4711807,19.0085424 66.6897391,19.3114404 66.7796595,19.6486418 C66.8695799,19.9858433 66.8308622,20.3573483 66.6421931,20.6832313 C66.5228156,20.8894288 66.3514952,21.0607492 66.1452977,21.1801268 L66.1452977,21.1801268 L36.1396609,38.5518112 C35.6465946,38.8372706 35.0960246,38.9800003 34.5454545,38.9800003 C33.9948845,38.9800003 33.4443145,38.8372706 32.9512482,38.5518112 L32.9512482,38.5518112 L2.94561143,21.1801268 C2.61972843,20.9914576 2.40117001,20.6885596 2.31124961,20.3513582 C2.22132922,20.0141567 2.26004685,19.6426517 2.44871596,19.3167687 C2.56809347,19.1105712 2.73941391,18.9392508 2.94561143,18.8198732 L2.94561143,18.8198732 L32.9512482,1.44818879 C33.4443145,1.16272939 33.9948845,1.01999969 34.5454545,1.01999969 Z"></path>
                            <ellipse id="椭圆形" fill="#FFFFFF" opacity="0.701182774" filter="url(#filter-4)" mask="url(#mask-3)" cx="34.5454545" cy="39.5454545" rx="16.3636364" ry="6.81818182"></ellipse>
                        </g>
                        <g id="编组-2" transform="translate(24.545455, 25.909091)">
                            <polygon id="多边形" fill="#3889FF" filter="url(#filter-5)" points="15.4545455 8.63636364 27.2639828 16.3636364 27.2639828 25.4545455 15.4545455 32.2727273 3.64510813 25.4545455 3.64510813 16.3636364"></polygon>
                            <polygon id="多边形备份-6" fill="#F2F7FF" points="15.4545455 0 28.8385744 7.72727273 28.8385744 23.1818182 15.4545455 30.9090909 2.07051649 23.1818182 2.07051649 7.72727273"></polygon>
                            <polygon id="路径-3" fill="#D9E6FF" points="15.4545455 30.9090909 28.8385744 23.1818182 28.8385744 7.72727273 15.4545455 15.4545455"></polygon>
                            <polygon id="路径-3备份" fill="#E6EFFF" transform="translate(8.799453, 19.318182) scale(-1, 1) translate(-8.799453, -19.318182) " points="2.10743802 30.9090909 15.491467 23.1818182 15.491467 7.72727273 2.10743802 15.4545455"></polygon>
                        </g>
                        <g id="编组-4" opacity="0.400000006" transform="translate(6.882932, 21.378440)" fill="#FFFFFF">
                            <path d="M0.711965517,0.467977489 C0.909739762,0.929214446 0.98681129,1.08524288 1.08182175,1.2163458 C1.2576216,1.45892828 1.50860104,1.61940776 1.72493104,1.74103223 C1.82365326,1.79653557 5.22386947,3.76461602 9.64040864,6.3209027 L9.64040864,6.3209027 L15.9981016,10.0005784 L16.827919,10.4808119 C23.322784,14.2394714 29.5694614,17.8529799 30.1239143,18.1664842 C30.3629583,18.3016468 30.5795095,18.4311188 30.7808816,18.5514757 C31.491564,18.976239 32.0371351,19.2841901 32.6625229,19.3856011 L32.6625229,19.3856011 L32.6625229,55.7518273 C32.2747931,55.6913434 31.8233443,55.5353146 31.2053659,55.1759312 C30.7954609,54.9375523 26.0759249,52.2126524 20.5489534,49.0215695 L20.5489534,49.0215695 L18.5193911,47.8497671 L17.7059533,47.380111 L16.4809356,46.6728125 L15.6643413,46.201322 L14.4452675,45.4974322 C8.64811661,42.1501304 3.32413727,39.0753758 2.2472576,38.4502555 C1.42252016,37.9715018 0.959129146,37.471239 0.717867845,36.8606557 C0.397747728,36.0504968 0.44077973,35.074487 0.475426366,33.7991531 C0.488236708,33.3276076 0.502055746,32.8172185 0.502055746,32.2617674 L0.502055746,32.2617674 L0.502020143,2.73380843 C0.490416017,1.80672228 0.462267455,1.09805128 0.711965517,0.467977489 Z" id="路径-2" stroke="url(#linearGradient-6)" stroke-width="0.909090909" fill-opacity="0.5"></path>
                            <path d="M33.8290339,0.467977489 C34.0268081,0.929214446 34.1038796,1.08524288 34.1988901,1.2163458 C34.3746899,1.45892828 34.6256694,1.61940776 34.8419994,1.74103223 C34.9407216,1.79653557 38.3409378,3.76461602 42.757477,6.3209027 L42.757477,6.3209027 L49.11517,10.0005784 L49.9449874,10.4808119 C56.4398523,14.2394714 62.6865297,17.8529799 63.2409827,18.1664842 C63.4800267,18.3016468 63.6965778,18.4311188 63.89795,18.5514757 C64.6086323,18.976239 65.1542035,19.2841901 65.7795912,19.3856011 L65.7795912,19.3856011 L65.7795912,55.7518273 C65.3918615,55.6913434 64.9404127,55.5353146 64.3224342,55.1759312 C63.9125292,54.9375523 59.1929932,52.2126524 53.6660217,49.0215695 L53.6660217,49.0215695 L51.6364595,47.8497671 L50.8230216,47.380111 L49.598004,46.6728125 L48.7814076,46.2013208 C48.549829,46.0676095 48.3185798,45.9340877 48.0878949,45.8008906 L47.3977674,45.4024094 C41.6647218,42.0921099 36.4310095,39.0694571 35.3643259,38.4502555 C34.5395885,37.9715018 34.0761975,37.471239 33.8349362,36.8606557 C33.5148161,36.0504968 33.5578481,35.074487 33.5924947,33.7991531 C33.6053051,33.3276076 33.6191241,32.8172185 33.6191241,32.2617674 L33.6191241,32.2617674 L33.6190885,2.73380843 C33.6074844,1.80672228 33.5793358,1.09805128 33.8290339,0.467977489 Z" id="路径-2备份" stroke="url(#linearGradient-7)" stroke-width="0.909090909" fill-opacity="0.3" transform="translate(49.675603, 28.120008) scale(-1, 1) translate(-49.675603, -28.120008) "></path>
                            <rect id="矩形" opacity="0.697420996" x="32.6625229" y="19.8942872" width="1" height="35.4545455"></rect>
                        </g>
                        <path d="M40,2.83818151 C40.55057,2.83818151 41.1011401,2.98091121 41.5942063,3.2663706 L41.5942063,3.2663706 L71.5998431,20.6380551 C71.9257261,20.8267242 72.1442845,21.1296222 72.2342049,21.4668237 C72.3241253,21.8040251 72.2854077,22.1755301 72.0967386,22.5014131 C71.9773611,22.7076106 71.8060406,22.8789311 71.5998431,22.9983086 L71.5998431,22.9983086 L41.5942063,40.369993 C41.1011401,40.6554524 40.55057,40.7981821 40,40.7981821 C39.44943,40.7981821 38.8988599,40.6554524 38.4057937,40.369993 L38.4057937,40.369993 L8.40015689,22.9983086 C8.07427388,22.8096395 7.85571546,22.5067415 7.76579507,22.16954 C7.67587467,21.8323385 7.7145923,21.4608335 7.90326141,21.1349505 C8.02263893,20.928753 8.19395936,20.7574326 8.40015689,20.6380551 L8.40015689,20.6380551 L38.4057937,3.2663706 C38.8988599,2.98091121 39.44943,2.83818151 40,2.83818151 Z" id="多边形备份-7" stroke="url(#linearGradient-9)" stroke-width="0.909090909" fill="url(#linearGradient-8)"></path>
                    </g>
                </g>
            </g>
        </g>
    </g>
</svg>