<?xml version="1.0" encoding="utf-8"?>
<!-- Generator: Adobe Illustrator 22.1.0, SVG Export Plug-In . SVG Version: 6.00 Build 0)  -->
<svg version="1.1" id="sp-logo" xmlns="http://www.w3.org/2000/svg" xmlns:xlink="http://www.w3.org/1999/xlink" x="0px"
	 y="0px" viewBox="0 0 105.2 22" style="enable-background:new 0 0 105.2 22;" xml:space="preserve">
<style type="text/css">
	.sp-logo-icon{fill:#0084FF;}
  .sp-logo-text{fill:#1D2129;}
	['data-theme'='dark'] .sp-logo-text{fill:#FFFFFF;}
</style>
<g>
	<g>
		<g>
			<polygon class="sp-logo-icon" points="9.5,16.4 7.5,17.6 0,13.2 0,17.8 7.5,22.1 13.4,18.7"/>
			<polygon class="sp-logo-icon" points="5.7,5.6 7.5,4.6 15.1,9 15.1,4.5 7.5,0.1 1.8,3.4"/>
		</g>
		<g>
			<polygon class="sp-logo-icon" points="0,4.4 3.9,6.7 3.9,11.2 0,8.9"/>
			<polygon class="sp-logo-icon" points="5.7,7.7 5.7,12.2 15.1,17.6 15.1,13.2 15.1,13.1"/>
		</g>
	</g>
</g>
<g>
	<path class="sp-logo-text" d="M24.4,5V3.6h16.4V5h-7.4v0.8h5.2c0.7,0,1.2,0.1,1.5,0.4s0.5,0.7,0.5,1.2v4.2h-1.7V7.7c0-0.4-0.2-0.7-0.7-0.7
		h-4.9v4.3h-1.6V7h-4.8c-0.4,0-0.6,0.3-0.6,0.8v3.7h-1.6V7.3c0-0.4,0.1-0.8,0.4-1.1c0.3-0.3,0.7-0.4,1.2-0.4h5.4V5H24.4z M24.5,18.6
		V17h13.6c0.4,0,0.6,0,0.7-0.1c0.1-0.1,0.1-0.3,0.1-0.6V16H24.6v-1.5H39v-0.2v-0.1c0-0.2-0.1-0.4-0.2-0.5c-0.1-0.1-0.2-0.1-0.3-0.1
		s-0.3,0-0.6,0H24.5V12h13.9c0.7,0,1.2,0.1,1.5,0.3c0.4,0.3,0.6,0.7,0.6,1.2v3.3c0,0.6-0.1,1-0.4,1.3c-0.3,0.3-0.8,0.4-1.5,0.4H24.5
		V18.6z M27,9.1V7.8h3.9v1.3H27z M27,11.1V9.9h3.9v1.3L27,11.1L27,11.1z M34.3,9.1V7.8h3.9v1.3H34.3z M34.3,11.1V9.9h3.9v1.3
		L34.3,11.1L34.3,11.1z"/>
	<path class="sp-logo-text" d="M42.6,5.5V3.8h3.5v1.6L42.6,5.5L42.6,5.5z M42.6,11.5V9.9h3.5v1.6H42.6z M42.6,18.4v-1.6h3.5v1.6H42.6z
		 M52.3,4.4V3.6h1.6v0.8H57c0.6,0,1.1,0.2,1.4,0.5c0.3,0.3,0.5,0.6,0.5,1.1v4.3c0,1.1-0.6,1.6-1.8,1.6h-2.5l0.6,1.2H59v1.6h-3
		c0.5,1,1,1.7,1.5,2c0.3,0.2,0.8,0.3,1.5,0.3v1.7c-0.7,0-1.3-0.1-1.9-0.4c-0.6-0.3-1.1-0.7-1.5-1.2c-0.3-0.3-0.5-0.7-0.8-1.2l-2.1-4
		h-3.8v4.6c0,0.2,0,0.4,0.1,0.5s0.3,0.1,0.5,0.1h1.7v1.6h-2c-0.7,0-1.3-0.1-1.6-0.4s-0.5-0.8-0.5-1.5V6.1c0-1.2,0.6-1.7,1.8-1.7
		C48.9,4.4,52.3,4.4,52.3,4.4z M48.9,7.3h8.3V6.5C57.2,6.2,57,6,56.6,6h-7c-0.2,0-0.4,0-0.5,0.1s-0.2,0.2-0.2,0.4L48.9,7.3z
		 M48.9,10.2h7.7c0.4,0,0.6-0.2,0.6-0.5V9h-8.3V10.2z"/>
	<path class="sp-logo-text" d="M60.7,7.3V5.6c0.4-0.1,0.6-0.2,0.7-0.4c0.2-0.3,0.3-0.9,0.4-1.7h1.7l-0.1,0.6h5.4v1.6h-2.3v1.6h-1.7V5.7H63
		c-0.3,0.6-0.6,0.9-0.9,1.1C62,7,61.4,7.2,60.7,7.3z M60.7,16.4V15H64v-0.6h-1.3c-0.5,0-0.9-0.1-1.2-0.4c-0.3-0.3-0.4-0.7-0.4-1.1
		V9.6c0-0.7,0.1-1.2,0.2-1.4c0.2-0.2,0.4-0.4,0.5-0.5c0.2-0.1,0.6-0.2,1.1-0.2h11.8c0.6,0,1,0.1,1.2,0.2C76.4,8,76.6,8.4,76.6,9v3.6
		c0,0.6-0.1,1-0.2,1.2c-0.3,0.4-0.8,0.7-1.5,0.7h-0.4V15h2.6v1.4h-2.6v2.2h-1.6v-2.2h-7.4c-0.2,0.6-0.6,1.1-1.2,1.4
		c-0.7,0.4-1.9,0.7-3.6,0.8v-1.5c0.8-0.1,1.4-0.1,1.8-0.2c0.3-0.1,0.6-0.2,0.9-0.4L60.7,16.4L60.7,16.4z M75,12.4H62.8
		c0,0.1,0,0.1,0,0.1c0,0.2,0.1,0.4,0.2,0.5c0.1,0.1,0.4,0.1,0.8,0.1H74c0.3,0,0.5,0,0.6,0s0.2-0.1,0.2-0.1C75,12.8,75,12.6,75,12.4z
		 M62.8,9.4H75c0-0.1,0-0.2-0.1-0.3c0-0.1-0.1-0.1-0.2-0.2c-0.1-0.1-0.3-0.1-0.7-0.1H63.9c-0.5,0-0.8,0.1-0.9,0.2
		C62.9,9,62.8,9.2,62.8,9.4z M62.8,11.2H75v-0.6H62.8V11.2z M65.7,15h7.2v-0.6h-7.2V15z M69,7.3V5.6c0.4-0.1,0.6-0.2,0.7-0.4
		c0.2-0.3,0.3-0.9,0.4-1.7h1.7l-0.1,0.6h5.4v1.6h-2.4v1.6h-1.6V5.7h-1.8c-0.2,0.5-0.5,0.9-0.9,1.1C70.2,7,69.7,7.2,69,7.3z"/>
	<path class="sp-logo-text" d="M78.9,18.6V17h0.4v-2.7c0-1.1,0.6-1.6,1.8-1.6h12c0.6,0,1.1,0.2,1.4,0.5s0.4,0.6,0.4,1.1V17h0.4v1.6H78.9z
		 M78.9,12.2v-1.6c0.4,0,0.7-0.2,0.9-0.4c0.2-0.2,0.3-0.5,0.3-1h-1.2V7.6h1.2V6c0-0.3,0.1-0.7,0.3-1c0.4-0.5,0.9-0.8,1.6-0.8h0.3
		V3.5h1.6v0.6h8.6c0.7,0,1.2,0.2,1.5,0.5C94.3,5,94.5,5.4,94.5,6v1.4h0.6V9h-0.6v1c0,0.6-0.2,1.2-0.7,1.6c-0.4,0.4-1,0.6-1.6,0.6
		h-1.9v-1.6h1.5c0.3,0,0.6-0.1,0.8-0.2c0.2-0.2,0.3-0.4,0.3-0.7V9.1h-5v2h-1.6v-2h-4.6c0,1-0.3,1.7-0.8,2.2
		C80.5,11.9,79.8,12.2,78.9,12.2z M81,17h3.1v-2.7h-2.5c-0.4,0-0.7,0.2-0.7,0.6L81,17z M81.8,7.5h4.6V6.2H88v1.3h5V6.6
		c0-0.3-0.1-0.5-0.3-0.6c-0.2-0.1-0.4-0.2-0.6-0.2h-9.4c-0.3,0-0.5,0.1-0.7,0.2s-0.3,0.3-0.3,0.5v1H81.8z M85.7,17h2.9v-2.7h-2.9V17
		z M90.2,17h3v-2.1c0-0.2,0-0.4-0.1-0.5s-0.2-0.1-0.5-0.1h-2.4V17z"/>
</g>
</svg>
